<?xml version="1.0" standalone="no"?>
<!DOCTYPE svg PUBLIC "-//W3C//DTD SVG 20010904//EN"
 "http://www.w3.org/TR/2001/REC-SVG-20010904/DTD/svg10.dtd">
<svg version="1.0" xmlns="http://www.w3.org/2000/svg"
 width="700.000000pt" height="700.000000pt" viewBox="0 0 700.000000 700.000000"
 preserveAspectRatio="xMidYMid meet">
<metadata>
Created by potrace 1.14, written by Peter Selinger 2001-2017
</metadata>
<g transform="translate(0.000000,700.000000) scale(0.100000,-0.100000)"
fill="#000000" stroke="none">
<path d="M929 6475 c-3 -25 -4 -5991 -2 -6000 2 -7 430 -10 1306 -9 1140 1
1413 4 1567 19 19 2 73 6 120 10 47 3 96 8 110 10 14 2 50 7 80 10 50 6 212
29 285 41 255 41 565 131 788 230 328 144 575 344 742 602 104 162 180 377
201 572 2 25 7 65 10 90 6 52 6 296 -1 353 -25 221 -97 419 -203 561 -68 91
-165 192 -237 247 -16 13 -32 26 -35 30 -28 36 -295 185 -400 224 -116 42
-353 118 -405 130 -46 10 -264 53 -280 55 -5 1 44 16 110 35 265 73 523 199
705 343 70 55 177 168 241 254 103 139 175 318 198 493 9 75 7 308 -4 389 -21
157 -87 341 -167 464 -168 259 -408 444 -758 584 -141 57 -311 111 -420 134
-14 3 -63 14 -110 24 -47 10 -101 21 -120 24 -89 15 -230 35 -281 41 -31 3
-65 7 -75 9 -11 2 -64 7 -119 11 -55 4 -108 9 -117 11 -103 18 -2727 28 -2729
9z m2506 -1199 c478 -68 671 -239 673 -596 1 -183 -40 -303 -130 -384 -97 -88
-208 -138 -392 -176 -133 -28 -235 -34 -591 -35 l-320 0 0 603 -1 604 361 -5
c198 -3 378 -7 400 -11z m95 -2161 c58 -6 204 -30 255 -40 65 -13 213 -68 275
-102 81 -44 115 -73 161 -133 91 -121 129 -267 124 -476 -1 -67 -5 -126 -8
-131 -3 -5 -8 -22 -11 -37 -24 -130 -126 -269 -257 -348 -84 -51 -236 -106
-336 -123 -18 -3 -48 -8 -65 -11 -117 -20 -297 -28 -653 -28 l-340 -1 -1 715
c0 393 1 718 3 722 4 8 778 3 853 -7z"/>
</g>
</svg>
